<svg width="17" height="17" viewBox="0 0 17 17" fill="none" xmlns="http://www.w3.org/2000/svg">
<path d="M8.5 1C4.36461 1 1 4.36432 1 8.5C1 12.6357 4.36461 16 8.5 16C12.6354 16 16 12.6357 16 8.5C16 4.36432 12.6354 1 8.5 1ZM8.5 15.4231C4.68279 15.4231 1.57692 12.3172 1.57692 8.5C1.57692 4.68279 4.68279 1.57692 8.5 1.57692C12.3172 1.57692 15.4231 4.68279 15.4231 8.5C15.4231 12.3172 12.3172 15.4231 8.5 15.4231Z" fill="#464646" stroke="black"/>
<path d="M11.5629 6.08412L7.72071 10.4065L5.40603 8.55481C5.29853 8.46853 5.14078 8.4863 5.05479 8.59381C4.96854 8.70182 4.98604 8.85906 5.09379 8.94529L7.5937 10.9452C7.63974 10.982 7.69498 11 7.74996 11C7.81897 11 7.8877 10.9715 7.93694 10.916L11.9368 6.41611C12.0286 6.31311 12.0193 6.15486 11.9161 6.06337C11.8126 5.97137 11.6548 5.98062 11.5629 6.08412Z" fill="#464646" stroke="black"/>
</svg>
