<svg width="17" height="17" viewBox="0 0 17 17" fill="none" xmlns="http://www.w3.org/2000/svg">
<path d="M8.5 1C4.36461 1 1 4.36432 1 8.5C1 12.6357 4.36461 16 8.5 16C12.6354 16 16 12.6357 16 8.5C16 4.36432 12.6354 1 8.5 1ZM8.5 15.4231C4.68279 15.4231 1.57692 12.3172 1.57692 8.5C1.57692 4.68279 4.68279 1.57692 8.5 1.57692C12.3172 1.57692 15.4231 4.68279 15.4231 8.5C15.4231 12.3172 12.3172 15.4231 8.5 15.4231Z" fill="#464646" stroke="black"/>
<line x1="5.46967" y1="11.1265" x2="11.1265" y2="5.46968" stroke="black" stroke-width="1.5"/>
<line x1="5.53033" y1="5.46967" x2="11.1872" y2="11.1265" stroke="black" stroke-width="1.5"/>
</svg>
