<svg width="30" height="28" viewBox="0 0 30 28" fill="none" xmlns="http://www.w3.org/2000/svg">
<path d="M4.07901 26.6195C4.07901 26.6195 4.05236 27.2902 4.70743 27.2902C5.52238 27.2902 12.2696 27.2813 12.2696 27.2813L12.2807 21.0848C12.2807 21.0848 12.1741 20.0633 13.1656 20.0633H16.3033C17.4758 20.0633 17.4036 21.0848 17.4036 21.0848L17.3903 27.2613C17.3903 27.2613 23.7877 27.2613 24.7926 27.2613C25.6242 27.2613 25.5864 26.4263 25.5864 26.4263V15.0026L15.1541 5.7228L4.07901 15.0026V26.6195Z" fill="#E0E0E0"/>
<path d="M0 14.1388C0 14.1388 0.940414 15.872 2.99112 14.1388L15.2465 3.77091L26.7369 14.0744C29.1107 15.7865 30 14.0744 30 14.0744L15.2465 0.709846L0 14.1388Z" fill="#E0E0E0"/>
<path d="M26.4583 3.74648H23.5027L23.5149 7.33049L26.4583 9.82753V3.74648Z" fill="#E0E0E0"/>
</svg>
