<svg width="28" height="28" viewBox="0 0 28 28" fill="none" xmlns="http://www.w3.org/2000/svg">
<path d="M24.4656 21.3471C26.2053 19.1057 27.2427 16.2932 27.2427 13.2427C27.2427 5.94067 21.302 0 14 0C6.69799 0 0.757324 5.94067 0.757324 13.2427C0.757324 20.5447 6.69799 26.4854 14 26.4854C14.9848 26.4854 15.9445 26.3764 16.8685 26.1715L23.4601 27.9377C23.6143 27.9791 23.7719 28 23.9283 28C24.475 28 25.0027 27.7375 25.3402 27.2977C25.6793 26.8558 25.7907 26.2923 25.646 25.7519L24.4656 21.3471ZM14 19.6868C14 19.6868 6.79607 15.7847 6.79607 10.8147C6.79607 8.59667 8.59418 6.79855 10.8122 6.79855C12.1112 6.79855 13.266 7.41542 14 8.37202C14.7341 7.41542 15.8888 6.79855 17.1878 6.79855C19.4058 6.79855 21.2039 8.59667 21.2039 10.8147C21.2039 15.8299 14 19.6868 14 19.6868Z" fill="#E0E0E0"/>
</svg>
