<svg width="32" height="30" viewBox="0 0 32 30" fill="none" xmlns="http://www.w3.org/2000/svg">
<path d="M23.7798 11.2569L17.3211 1.56881C17.0275 1.27523 16.5872 0.981651 16.1468 0.981651C15.7064 0.981651 15.2661 1.12844 14.9725 1.56881L8.51376 11.2569H1.46789C0.587156 11.2569 0 11.844 0 12.7248C0 12.8716 0 13.0184 0 13.1651L3.66972 26.8165C3.9633 27.9908 5.13761 29.0184 6.45871 29.0184H25.5413C26.8624 29.0184 28.0367 28.1376 28.3303 26.8165L32 13.1651C32 13.0184 32 12.8716 32 12.7248C32 11.844 31.4128 11.2569 30.5321 11.2569H23.7798ZM11.7431 11.2569L16.1468 4.79817L20.5505 11.2569H11.7431ZM16.1468 23C14.5321 23 13.211 21.6789 13.211 20.0642C13.211 18.4495 14.5321 17.1284 16.1468 17.1284C17.7615 17.1284 19.0826 18.4495 19.0826 20.0642C19.0826 21.6789 17.7615 23 16.1468 23Z" fill="#FF480F"/>
</svg>
