<svg width="32" height="32" viewBox="0 0 32 32" fill="none" xmlns="http://www.w3.org/2000/svg">
<circle cx="16" cy="16" r="16" fill="#99D253"/>
<path d="M22.4166 25.9127V9.66659C22.4166 9.18035 22.2234 8.71404 21.8796 8.37022C21.5358 8.02641 21.0695 7.83325 20.5833 7.83325H11.4166C10.9304 7.83325 10.464 8.02641 10.1202 8.37022C9.77641 8.71404 9.58325 9.18035 9.58325 9.66659V25.9127L15.9999 21.7226L22.4166 25.9127ZM12.3333 13.3333L14.778 13.028L15.9999 10.5833L17.2218 13.028L19.6666 13.3333L17.6288 15.0648L18.4447 17.9166L15.9999 16.2868L13.5552 17.9166L14.371 15.0648L12.3333 13.3333Z" fill="#30402A"/>
</svg>
