<svg width="32" height="32" viewBox="0 0 32 32" fill="none" xmlns="http://www.w3.org/2000/svg">
<circle cx="16" cy="16" r="16" fill="#99D253"/>
<path d="M13.5805 16.414L14.3947 15.5493L14.827 15.9575C17.5593 18.5314 20.301 20.0974 23.5273 20.8957C23.9626 19.7082 24.0012 18.4012 23.6252 17.1261C23.1265 15.4343 21.965 13.9603 20.2672 12.8637C18.7736 11.8989 17.4246 11.6729 15.9963 11.4335C15.2125 11.3021 14.4006 11.1663 13.5155 10.898C11.8909 10.4052 10.1872 8.94087 10.1701 8.9264L9.23942 8.1189L9.18747 9.35019C9.18376 9.44519 9.09766 11.7092 9.71516 14.8338C10.3675 18.1366 11.5795 20.6173 13.3174 22.2049C14.7275 23.4922 16.5689 24.2051 18.3988 24.2051C18.7438 24.2053 19.0884 24.1796 19.4297 24.1283C20.9779 23.8937 22.2659 23.1163 22.9922 21.9852C19.6709 21.1213 16.8339 19.4784 14.0117 16.821L13.5805 16.414Z" fill="#30402A"/>
<path d="M25.346 21.2571C24.7215 21.161 24.1166 21.0404 23.5277 20.8945C23.4064 21.225 23.2558 21.544 23.0775 21.8475C23.0501 21.8939 23.0215 21.9399 22.9926 21.9852C23.7087 22.1706 24.4339 22.3193 25.1653 22.4305L25.7524 22.521L25.9327 21.3473L25.346 21.2571Z" fill="#30402A"/>
</svg>
