<svg width="32" height="32" viewBox="0 0 32 32" fill="none" xmlns="http://www.w3.org/2000/svg">
<circle cx="16" cy="16" r="16" fill="#99D253"/>
<path d="M15.488 25.7541C15.782 25.9111 16.151 25.9101 16.445 25.7531C24.457 21.4491 25.026 13.0401 25.019 10.6491C25.0183 10.4569 24.9615 10.2692 24.8556 10.1088C24.7498 9.94839 24.5994 9.82235 24.423 9.74611L16.373 6.18011C16.2449 6.12364 16.1064 6.09456 15.9664 6.09473C15.8264 6.0949 15.688 6.12432 15.56 6.18111L7.56603 9.74711C7.39222 9.82339 7.24402 9.94804 7.13906 10.1062C7.0341 10.2643 6.97681 10.4493 6.97403 10.6391C6.94003 13.0181 7.41903 21.4451 15.488 25.7541ZM12.674 14.2931L14.967 16.5861L19.26 12.2931L20.674 13.7071L14.967 19.4141L11.26 15.7071L12.674 14.2931Z" fill="#30402A"/>
</svg>
