<svg width="24" height="32" viewBox="0 0 24 32" fill="none" xmlns="http://www.w3.org/2000/svg">
<g clip-path="url(#clip0)">
<path d="M9.9789 27.6031C3.91574 26.3818 -0.126367 21.4963 -5.13606e-05 15.7558C0.126264 13.6795 1.13679 11.8474 2.27363 10.1375C4.79995 6.35122 7.95784 3.17565 11.3684 0.244349C11.7473 -0.122063 12.1263 -0.2442 12.6315 0.244349C16.0421 3.17565 19.0736 6.47336 21.7263 10.0153C26.7789 16.855 22.7368 24.3054 16.7999 26.8703C15.5368 27.3589 12.3789 28.0917 9.9789 27.6031ZM3.78942 11.2367C1.89469 13.6795 1.13679 16.3665 2.27363 19.1756C3.66311 23.084 6.56837 25.4046 10.9894 26.0153C11.1157 25.7711 11.1157 25.6489 11.1157 25.5268C11.1157 23.3283 11.1157 21.0077 11.1157 18.8092C11.1157 18.565 10.9894 18.1985 10.7368 18.0764C8.46311 15.7558 6.18942 13.4352 3.78942 11.2367ZM12.8842 25.8932C17.3052 25.6489 20.7157 22.7176 21.8526 18.9314C22.7368 16.1222 22.1052 13.5573 20.2105 11.2367C17.8105 13.4352 15.5368 15.6337 13.2631 17.8321C13.0105 18.0764 12.8842 18.3207 12.8842 18.565C12.8842 21.0077 12.8842 23.3283 12.8842 25.8932ZM5.05258 9.40465C7.19995 11.481 9.09468 13.4352 11.2421 15.5115C11.2421 13.8016 11.2421 12.0917 11.2421 10.5039C11.2421 10.2596 10.9894 10.0153 10.8631 9.8932C9.72626 8.9161 8.71574 8.06114 7.70521 7.20618C7.45258 7.08404 6.94732 7.08404 6.821 7.20618C6.06311 7.939 5.43153 8.79397 5.05258 9.40465ZM12.8842 15.3894C13.0105 15.3894 13.1368 15.5115 13.1368 15.5115C15.0315 13.6795 16.9263 11.7253 18.821 9.8932C18.9473 9.77107 18.9473 9.40465 18.821 9.28252C18.1894 8.42755 17.5578 7.57259 16.7999 6.96191C16.5473 6.83977 15.5368 7.69473 15.0315 8.18328C14.5263 8.79397 13.8947 9.28252 13.3894 9.77107C13.2631 9.8932 13.0105 10.1375 13.0105 10.2596C12.8842 11.9695 12.8842 13.6795 12.8842 15.3894ZM15.6631 5.49626C14.7789 4.76343 13.8947 3.90847 13.0105 3.17565C13.0105 4.64129 13.0105 6.10694 13.0105 7.69473C13.8947 6.96191 14.7789 6.35122 15.6631 5.49626ZM8.33679 5.49626C9.34732 6.35122 10.1052 6.96191 10.9894 7.81687C10.9894 6.22908 10.9894 4.76343 10.9894 3.17565C10.1052 3.90847 9.221 4.76343 8.33679 5.49626Z" fill="#E9CF95"/>
<path d="M23.4947 32.0001H0.505263C0.252632 32.0001 0 31.7558 0 31.5115V30.5344C0 30.2902 0.252632 30.0459 0.505263 30.0459H23.6211C23.8737 30.0459 24.1263 30.2902 24.1263 30.5344V31.5115C24 31.878 23.7474 32.0001 23.4947 32.0001Z" fill="#E9CF95"/>
</g>
<defs>
<clipPath id="clip0">
<rect width="24" height="32" fill="white"/>
</clipPath>
</defs>
</svg>
