<svg width="26" height="26" viewBox="0 0 26 26" fill="none" xmlns="http://www.w3.org/2000/svg">
<path d="M24.9497 11.9497H1.05026C0.470234 11.9497 0 12.4199 0 13C0 13.5801 0.470234 14.0503 1.05026 14.0503H24.9497C25.5298 14.0503 26 13.5801 26 13C26 12.42 25.5298 11.9497 24.9497 11.9497Z" fill="white"/>
<path d="M24.9497 3.98322H1.05026C0.470234 3.98322 0 4.45345 0 5.03347C0 5.6135 0.470234 6.08373 1.05026 6.08373H24.9497C25.5298 6.08373 26 5.6135 26 5.03347C26 4.45345 25.5298 3.98322 24.9497 3.98322Z" fill="white"/>
<path d="M24.9497 19.9162H1.05026C0.470234 19.9162 0 20.3864 0 20.9665C0 21.5466 0.470234 22.0167 1.05026 22.0167H24.9497C25.5298 22.0167 26 21.5466 26 20.9665C26 20.3864 25.5298 19.9162 24.9497 19.9162Z" fill="white"/>
</svg>
